PathFileType	4	(X/Y/Z)	/Users/mathieubourgeois/Desktop/Analyse/Traitement/Sujet_03/Data/Transformed_Sujet_03_velo_60.trc
DataRate	CameraRate	NumFrames	NumMarkers	Units	OrigDataRate	OrigDataStartFrame	OrigNumFrames
120.000000	120.000000	4	36	mm	120.000000	927	1854
Frame#	Time	RFHD			LFHD			RBHD			LBHD			C7			CLAV			RSHO			LSHO			STRN			T10			RBWT			LBWT			RFWT			LFWT			RKNI			LKNI			RKNE			LKNE			LANI			RANI			LANE			RANE			LTOE			RTOE			LHEE			RHEE			RHUM			LHUM			RRAD			LRAD			RWRA			RWRB			LWRA			LWRB			LCAR			RCAR			
		X1	Y1	Z1	X2	Y2	Z2	X3	Y3	Z3	X4	Y4	Z4	X5	Y5	Z5	X6	Y6	Z6	X7	Y7	Z7	X8	Y8	Z8	X9	Y9	Z9	X10	Y10	Z10	X11	Y11	Z11	X12	Y12	Z12	X13	Y13	Z13	X14	Y14	Z14	X15	Y15	Z15	X16	Y16	Z16	X17	Y17	Z17	X18	Y18	Z18	X19	Y19	Z19	X20	Y20	Z20	X21	Y21	Z21	X22	Y22	Z22	X23	Y23	Z23	X24	Y24	Z24	X25	Y25	Z25	X26	Y26	Z26	X27	Y27	Z27	X28	Y28	Z28	X29	Y29	Z29	X30	Y30	Z30	X31	Y31	Z31	X32	Y32	Z32	X33	Y33	Z33	X34	Y34	Z34	X35	Y35	Z35	X36	Y36	Z36	

928	7.725	147.9092102050781	1563.625244140625	107.7162704467773	128.9692535400391	1559.57568359375	-44.54872131347664	39.46165466308592	1638.925659179688	122.7573242187499	12.97981357574463	1651.540893554688	-24.09072494506846	-114.4223785400391	1560.46337890625	50.24178314208974	-78.18186187744141	1407.017211914062	46.70701980590811	-53.64102935791018	1479.12890625	226.3737487792968	-83.24679565429686	1504.128051757812	-141.1776885986329	-174.3647003173828	1268.502197265625	44.13218688964834	-331.8904418945312	1458.6640625	51.58877182006822	-522.0325927734375	1258.31640625	124.3863830566405	-526.5970458984375	1258.3173828125	0.8439035415647999	-369.822509765625	1192.789428710938	180.7644195556639	-375.3856201171875	1184.29833984375	-63.39965057373058	-78.11350250244142	778.8056640625	124.1777343749999	-107.0234832763672	773.4282836914062	-74.12637329101568	-97.9023132324219	824.1570434570312	238.3600311279296	-112.1322937011718	816.3116455078125	-183.7386322021485	-403.7889709472656	543.3209228515625	-50.06716537475594	-141.401351928711	411.2393493652344	124.3514709472656	-433.7432250976562	526.8836059570312	-134.978988647461	-168.7490539550782	391.7609252929688	212.2301635742187	-310.2810668945312	363.5702819824219	-82.61190032958991	19.85802459716795	294.0696105957031	147.2051849365234	-501.1346130371094	550.5818481445312	-91.9520797729493	-238.5482177734375	369.9038696289062	166.7959442138671	28.76447868347165	1187.650512695312	227.8470764160155	7.302406787872331	1197.781860351562	-141.1334075927735	80.75383758544919	1210.467163085938	285.3689575195312	55.9426956176758	1230.93359375	-198.2647094726563	293.5797729492188	1048.57421875	211.1057891845703	270.1898193359374	1033.777099609375	289.0527648925781	247.8270721435547	1060.337768554688	-125.9432983398438	222.6889801025391	1045.02001953125	-200.8994293212891	320.4913635253906	1032.200805664062	-222.922103881836	370.9588012695312	1011.638366699219	305.4273071289062	
929	7.733333333333333	148.1354827880859	1563.732666015625	107.3214645385741	129.2539672851562	1559.600830078125	-44.99981307983406	39.69823455810545	1639.049072265625	122.2530975341796	13.22232055664063	1651.57861328125	-24.55079460144053	-114.1904525756836	1560.504272460938	49.74123764038075	-77.88821411132812	1407.103759765625	46.18936157226553	-53.36313247680667	1479.3115234375	225.8938446044921	-83.11070251464842	1504.155517578125	-141.602996826172	-174.1407470703125	1268.5341796875	43.80049896240224	-331.615966796875	1458.622924804688	51.36835098266588	-521.6189575195312	1258.257080078125	124.6245117187499	-526.376953125	1258.3828125	1.086641550063945	-369.5107727050781	1192.47802734375	180.7434692382811	-375.1899108886719	1184.551513671875	-63.34733963012707	-85.04364013671876	771.5548706054688	124.4682464599609	-102.4470520019531	779.7926025390625	-74.97499084472662	-103.107421875	816.7697143554688	238.1959991455078	-107.559944152832	822.676513671875	-184.5972137451172	-400.5643005371094	552.5140991210938	-50.19162750244149	-143.8196563720703	402.7579040527344	124.1955413818359	-430.6422729492188	535.94677734375	-134.9921417236329	-171.2092742919922	383.3820495605469	212.1280059814453	-306.9202270507812	373.2869567871094	-82.94462585449226	17.19494438171385	284.7216796875	147.027587890625	-497.5707397460938	559.9218139648438	-92.75930786132821	-240.8023071289063	361.7819213867188	166.7174072265624	28.92942047119138	1187.743774414062	227.6457366943359	7.385308265686052	1197.781616210938	-141.3628540039063	80.91060638427732	1210.6064453125	285.1526184082031	56.02287673950197	1230.878540039062	-198.5093231201173	293.6205749511719	1048.50341796875	211.080810546875	270.2289428710937	1033.7509765625	289.0373229980469	247.8478546142578	1060.54443359375	-126.2100448608399	222.750717163086	1044.975952148438	-200.9225463867188	320.5898742675781	1032.17724609375	-222.9001770019532	370.9758605957031	1011.611328125	305.4508666992188	
930	7.741666666666666	148.3381195068359	1563.85986328125	106.8687210083007	129.490966796875	1559.628784179688	-45.44340515136727	39.91424560546874	1639.179077148438	121.7312850952147	13.48525047302246	1651.605224609375	-25.09976577758799	-113.9658279418945	1560.552734375	49.30143356323232	-77.6541748046875	1407.17236328125	45.78759384155264	-53.05525207519534	1479.52783203125	225.3431549072265	-83.00323486328124	1504.17724609375	-142.0830078125001	-173.7035064697266	1268.5439453125	43.35206604003896	-331.3469543457031	1458.574584960938	51.1651573181151	-521.210205078125	1258.1787109375	124.8746185302733	-526.1531372070312	1258.462036132812	1.326116085052349	-369.2160339355469	1192.147216796875	180.7654571533202	-374.9845886230469	1184.765747070312	-63.26837539672863	-90.97924804687501	763.1846923828125	123.698745727539	-97.90316772460936	786.1217041015625	-76.20272827148443	-108.4100723266602	809.65869140625	238.0486602783203	-103.014892578125	829.208740234375	-185.3643035888672	-397.0661926269531	561.4266357421875	-50.25416946411141	-146.5703430175782	394.6270751953125	124.0844955444336	-427.1938781738281	544.76806640625	-135.0192260742188	-174.0548095703125	375.3460693359375	212.0756072998046	-303.771240234375	381.9053039550781	-82.41551971435554	14.25919151306151	275.1074523925781	146.9266967773437	-494.1404724121094	568.8787231445312	-92.83227539062509	-243.5033264160157	353.9706115722656	166.6447601318359	29.07927131652829	1187.851196289062	227.4210968017577	7.440451145172137	1197.756958007812	-141.5971832275391	81.0471496582031	1210.761596679688	284.9078369140624	56.09975814819338	1230.807250976562	-198.7631835937501	293.673583984375	1048.44384765625	211.0267181396484	270.2477416992187	1033.77294921875	289.0092163085938	247.8830718994141	1060.537475585938	-126.2606201171875	222.8170471191407	1044.917236328125	-200.9840698242188	320.6331176757812	1032.139526367188	-222.9101104736328	371.0162963867187	1011.602661132812	305.4290466308594	
931	7.75	148.6132659912109	1564.001342773438	106.331817626953	129.7621307373047	1559.661743164062	-45.93897247314461	40.17175292968749	1639.32958984375	121.2100143432616	13.72554588317871	1651.64990234375	-25.62029075622569	-113.6996536254883	1560.617309570312	48.78263092041005	-77.34516906738281	1407.255615234375	45.30680084228506	-52.77856063842776	1479.744873046875	224.8050537109374	-82.90491485595702	1504.203002929688	-142.5641632080079	-173.4688873291016	1268.536743164062	42.99100494384756	-331.085205078125	1458.526611328125	50.97756958007799	-520.7847900390625	1258.075317382812	125.1009292602538	-525.9232177734375	1258.556518554688	1.538831591605999	-368.902099609375	1191.801513671875	180.772262573242	-374.7790222167969	1184.967407226562	-63.20838928222668	-96.65481567382814	756.3819580078125	123.6186828613281	-91.32929229736327	794.0942993164062	-77.47321319580084	-113.6761703491211	802.8074951171875	237.8529205322265	-98.49230957031247	835.9156494140625	-186.0438842773438	-393.2560119628906	570.1271362304688	-50.23045730590829	-149.7161865234375	386.7702941894531	124.0208053588867	-423.4054565429688	553.3123779296875	-135.0132598876954	-177.2764129638672	367.5533447265625	211.9731140136718	-299.8388671875	390.8482971191406	-82.29084014892585	10.56841754913328	266.0124816894531	146.7748565673828	-490.9287109375	577.4501342773438	-92.07709503173837	-246.6223602294922	346.5694580078125	166.6963195800781	29.23077392578122	1188.002685546875	227.169219970703	7.473317623138445	1197.748901367188	-141.8572998046876	81.20927429199216	1210.906372070312	284.6685180664062	56.15398788452151	1230.75830078125	-199.0511779785157	293.7181701660156	1048.400756835938	210.9592132568359	270.2902526855468	1033.8125	288.9552001953125	247.8764801025391	1060.53173828125	-126.3300018310547	222.849609375	1044.859741210938	-201.0484008789063	320.6940002441406	1032.09375	-222.9469909667969	371.0436401367187	1011.605102539062	305.395263671875	
